# xmcd CD database file
#
# Track frame offsets:
#	182
#	12390
#	28440
#	43440
#	56565
#	72615
#	89790
#	100365
#	116940
#	128115
#	144390
#	159015
#	173190
#	186615
#	196140
#	209040
#	223290
#	237915
#
# Disc length: 3405 seconds
#
# Revision: 0
# Processed by: cddbd v1.5.2PL0 Copyright (c) Steve Scherf et al.
# Submitted via: ACXtractor (MTCDDB.DLL V2003.12.21)
#
DISCID=290d4b12
DTITLE=Uwayne horsburgh - favourites
DYEAR=2002
DGENRE=Country
TTITLE0=LANA
TTITLE1=SHEPHERD'S FAREWELL
TTITLE2=HAPPY ANNIVERSARY
TTITLE3=WHERE IN THE WORLD
TTITLE4=LOOK AT THE LADY NOW
TTITLE5=HOME ON THE RANGE
TTITLE6=IT'S A SMALL WORLD
TTITLE7=TMAMA AND DADDY STILL WALTZ
TTITLE8=ALASKA, YOU'VE GOT IT ALL
TTITLE9=BLUE SHADOWS ON THE TRAIL
TTITLE10=HILLYBILLY AND THE OUTLAW
TTITLE11=ENGLISH COUNTRY GARDEN
TTITLE12=ONLY YOU
TTITLE13=KENTUCKY WALTZ
TTITLE14=CHINA DOLL
TTITLE15=SEPTEMBER'S SWEET CHILD
TTITLE16=SOFT RAIN
TTITLE17=LOVER'S CAROUSEL
EXTD=ID3G:   2 YEAR: 2002
EXTT0=
EXTT1=
EXTT2=
EXTT3=
EXTT4=
EXTT5=
EXTT6=
EXTT7=
EXTT8=
EXTT9=
EXTT10=
EXTT11=
EXTT12=
EXTT13=
EXTT14=
EXTT15=
EXTT16=
EXTT17=
PLAYORDER=
